<svg xmlns="http://www.w3.org/2000/svg" viewBox="0 0 145.27 37.22"><defs><style>.cls-1{fill:#ff8a00;}</style></defs><g id="Layer_2" data-name="Layer 2"><g id="Layer_1-2" data-name="Layer 1"><path d="M7.87,36.85H0V11.18H7.87v4.28a9.56,9.56,0,0,1,8.05-4.56v8.33H13.76c-3.73,0-5.89,1.29-5.89,5.7Z"/><path d="M19,4.28A4.36,4.36,0,0,1,23.64,0a4.34,4.34,0,0,1,4.65,4.28,4.34,4.34,0,0,1-4.65,4.23C20.84,8.51,19,6.62,19,4.28Zm.74,6.9h7.86V36.85H19.69Z"/><path d="M34.5,17.71H31.37V11.18H34.5V4.92h7.87v6.26h5.15v6.53H42.37V28c0,1.52.64,2.16,2.39,2.16h2.81v6.67h-4c-5.33,0-9.06-2.25-9.06-8.92Z"/><path d="M63.34,37.22c-7.54,0-13-5.06-13-13.21s5.34-13.2,13-13.2,12.79,5,12.79,12.79A18.19,18.19,0,0,1,76,25.9H58.19c.28,3.36,2.35,4.92,4.88,4.92a4.18,4.18,0,0,0,4.09-2.48h8.37C74.29,33.35,69.74,37.22,63.34,37.22Zm-5.1-15.69h9.84c0-2.81-2.21-4.42-4.83-4.42A4.86,4.86,0,0,0,58.24,21.53Z"/><path d="M90.71,37.22c-6.85,0-11.45-3.82-11.82-8.79h7.77c.19,1.8,1.8,3,4,3s3.08-.92,3.08-2.07c0-4.14-14-1.15-14-10.58,0-4.37,3.72-8,10.44-8s10.3,3.68,10.81,8.74H93.7c-.23-1.75-1.56-2.9-3.77-2.9-1.84,0-2.85.74-2.85,2,0,4.1,13.89,1.2,14,10.77C101.11,33.86,97.15,37.22,90.71,37.22Z"/><path d="M105.94,2.81h7.86V14.63a9.48,9.48,0,0,1,7.92-3.73c5.84,0,9.75,4,9.75,11v15h-7.82V22.91c0-3.5-1.93-5.43-4.92-5.43s-4.93,1.93-4.93,5.43V36.85h-7.86Z"/><path class="cls-1" d="M140.62,37.22c-2.81,0-4.69-1.89-4.69-4.23a4.69,4.69,0,1,1,4.69,4.23Z"/></g></g></svg>